<mxfile host="app.diagrams.net" modified="2021-10-08T22:46:35.365Z" agent="5.0 (Windows NT 10.0; Win64; x64) AppleWebKit/537.36 (KHTML, like Gecko) Chrome/94.0.4606.71 Safari/537.36" etag="ZeM5-hD9hGtOSGUU9IYF" version="15.4.3" type="github">
  <diagram id="R2lEEEUBdFMjLlhIrx00" name="Page-1">
    <mxGraphModel dx="1146" dy="548" grid="1" gridSize="10" guides="1" tooltips="1" connect="1" arrows="1" fold="1" page="1" pageScale="1" pageWidth="850" pageHeight="1100" math="0" shadow="0" extFonts="Permanent Marker^https://fonts.googleapis.com/css?family=Permanent+Marker">
      <root>
        <mxCell id="0" />
        <mxCell id="1" parent="0" />
        <mxCell id="hiohyWhipNGefhmubx3Z-1" value="Departamento" style="swimlane;childLayout=stackLayout;horizontal=1;startSize=30;horizontalStack=0;rounded=1;fontSize=14;fontStyle=0;strokeWidth=2;resizeParent=0;resizeLast=1;shadow=0;dashed=0;align=center;" vertex="1" parent="1">
          <mxGeometry x="80" y="140" width="160" height="120" as="geometry" />
        </mxCell>
        <mxCell id="hiohyWhipNGefhmubx3Z-2" value="codigo&#xa;nome" style="align=left;strokeColor=none;fillColor=none;spacingLeft=4;fontSize=12;verticalAlign=top;resizable=0;rotatable=0;part=1;" vertex="1" parent="hiohyWhipNGefhmubx3Z-1">
          <mxGeometry y="30" width="160" height="90" as="geometry" />
        </mxCell>
        <mxCell id="hiohyWhipNGefhmubx3Z-5" value="" style="edgeStyle=entityRelationEdgeStyle;fontSize=12;html=1;endArrow=ERzeroToMany;endFill=1;rounded=0;" edge="1" parent="1">
          <mxGeometry width="100" height="100" relative="1" as="geometry">
            <mxPoint x="330" y="194.5" as="sourcePoint" />
            <mxPoint x="450" y="194.5" as="targetPoint" />
          </mxGeometry>
        </mxCell>
        <mxCell id="hiohyWhipNGefhmubx3Z-6" value="" style="line;strokeWidth=1;rotatable=0;dashed=0;labelPosition=right;align=left;verticalAlign=middle;spacingTop=0;spacingLeft=6;points=[];portConstraint=eastwest;" vertex="1" parent="1">
          <mxGeometry x="240" y="190" width="60" height="10" as="geometry" />
        </mxCell>
        <mxCell id="hiohyWhipNGefhmubx3Z-7" value="lota" style="text;html=1;align=center;verticalAlign=middle;resizable=0;points=[];autosize=1;strokeColor=none;fillColor=none;" vertex="1" parent="1">
          <mxGeometry x="300" y="185" width="30" height="20" as="geometry" />
        </mxCell>
        <mxCell id="hiohyWhipNGefhmubx3Z-13" value="" style="endArrow=none;html=1;rounded=0;edgeStyle=orthogonalEdgeStyle;" edge="1" parent="1">
          <mxGeometry relative="1" as="geometry">
            <mxPoint x="250" y="185" as="sourcePoint" />
            <mxPoint x="250" y="205" as="targetPoint" />
          </mxGeometry>
        </mxCell>
        <mxCell id="hiohyWhipNGefhmubx3Z-14" value="" style="resizable=0;html=1;align=left;verticalAlign=bottom;" connectable="0" vertex="1" parent="hiohyWhipNGefhmubx3Z-13">
          <mxGeometry x="-1" relative="1" as="geometry" />
        </mxCell>
        <mxCell id="hiohyWhipNGefhmubx3Z-15" value="" style="resizable=0;html=1;align=right;verticalAlign=bottom;" connectable="0" vertex="1" parent="hiohyWhipNGefhmubx3Z-13">
          <mxGeometry x="1" relative="1" as="geometry" />
        </mxCell>
        <mxCell id="hiohyWhipNGefhmubx3Z-24" value="funcionario" style="swimlane;childLayout=stackLayout;horizontal=1;startSize=30;horizontalStack=0;rounded=1;fontSize=14;fontStyle=0;strokeWidth=2;resizeParent=0;resizeLast=1;shadow=0;dashed=0;align=center;" vertex="1" parent="1">
          <mxGeometry x="450" y="140" width="160" height="120" as="geometry" />
        </mxCell>
        <mxCell id="hiohyWhipNGefhmubx3Z-25" value="*matrícula&#xa;nome&#xa;sálario" style="align=left;strokeColor=none;fillColor=none;spacingLeft=4;fontSize=12;verticalAlign=top;resizable=0;rotatable=0;part=1;" vertex="1" parent="hiohyWhipNGefhmubx3Z-24">
          <mxGeometry y="30" width="160" height="90" as="geometry" />
        </mxCell>
        <mxCell id="hiohyWhipNGefhmubx3Z-32" value="" style="endArrow=none;html=1;rounded=0;edgeStyle=orthogonalEdgeStyle;entryX=0.554;entryY=0.996;entryDx=0;entryDy=0;entryPerimeter=0;" edge="1" parent="1" target="hiohyWhipNGefhmubx3Z-25">
          <mxGeometry relative="1" as="geometry">
            <mxPoint x="539" y="360" as="sourcePoint" />
            <mxPoint x="540" y="280" as="targetPoint" />
            <Array as="points">
              <mxPoint x="539" y="370" />
              <mxPoint x="539" y="370" />
            </Array>
          </mxGeometry>
        </mxCell>
        <mxCell id="hiohyWhipNGefhmubx3Z-34" value="" style="endArrow=none;html=1;rounded=0;edgeStyle=orthogonalEdgeStyle;" edge="1" parent="1">
          <mxGeometry relative="1" as="geometry">
            <mxPoint x="530" y="270" as="sourcePoint" />
            <mxPoint x="550" y="270" as="targetPoint" />
          </mxGeometry>
        </mxCell>
        <mxCell id="hiohyWhipNGefhmubx3Z-35" value="" style="resizable=0;html=1;align=left;verticalAlign=bottom;" connectable="0" vertex="1" parent="hiohyWhipNGefhmubx3Z-34">
          <mxGeometry x="-1" relative="1" as="geometry" />
        </mxCell>
        <mxCell id="hiohyWhipNGefhmubx3Z-36" value="" style="resizable=0;html=1;align=right;verticalAlign=bottom;" connectable="0" vertex="1" parent="hiohyWhipNGefhmubx3Z-34">
          <mxGeometry x="1" relative="1" as="geometry" />
        </mxCell>
        <mxCell id="hiohyWhipNGefhmubx3Z-37" value="gerencia" style="text;html=1;align=center;verticalAlign=middle;resizable=0;points=[];autosize=1;strokeColor=none;fillColor=none;" vertex="1" parent="1">
          <mxGeometry x="510" y="370" width="60" height="20" as="geometry" />
        </mxCell>
        <mxCell id="hiohyWhipNGefhmubx3Z-38" value="" style="endArrow=none;html=1;rounded=0;edgeStyle=orthogonalEdgeStyle;" edge="1" parent="1">
          <mxGeometry relative="1" as="geometry">
            <mxPoint x="530" y="360" as="sourcePoint" />
            <mxPoint x="550" y="360" as="targetPoint" />
            <Array as="points">
              <mxPoint x="530" y="360" />
              <mxPoint x="550" y="360" />
            </Array>
          </mxGeometry>
        </mxCell>
        <mxCell id="hiohyWhipNGefhmubx3Z-39" value="" style="resizable=0;html=1;align=left;verticalAlign=bottom;" connectable="0" vertex="1" parent="hiohyWhipNGefhmubx3Z-38">
          <mxGeometry x="-1" relative="1" as="geometry" />
        </mxCell>
        <mxCell id="hiohyWhipNGefhmubx3Z-40" value="" style="resizable=0;html=1;align=right;verticalAlign=bottom;" connectable="0" vertex="1" parent="hiohyWhipNGefhmubx3Z-38">
          <mxGeometry x="1" relative="1" as="geometry" />
        </mxCell>
      </root>
    </mxGraphModel>
  </diagram>
</mxfile>
